<?xml version="1.0" encoding="UTF-8"?>
<svg id="Camada_2" data-name="Camada 2" xmlns="http://www.w3.org/2000/svg" viewBox="0 0 3290.13 1252.22">
  <defs>
    <style>.cls-1 {
  fill: #fff;
}

.cls-2 {
  fill: #d35e5d;
}

.cls-3 {
  fill: #813937;
}

</style>
  </defs>
  <g id="Camada_1-2" data-name="Camada 1">
    <path class="cls-3" d="M2378.28,102.19l39.95,20.52c9.21,14.57,29.41,18.48,41.02,30.94l45.04,89.87c2.52,7.73,2.1,15.87,1.82,23.9l-24.87,136.5c8.48.88,16.58,3.83,24.35,7.14,29.08,12.38,69.97,32.78,97.28,48.64,6.11,3.55,13.43,8.61,18.8,13.19,29.16,24.88,41.06,63.84,58.52,96.88l19.17-29.28c6.73-9.34,14.47-19.22,23.34-26.63,4.9-4.1,16.74-9.53,19.49-12.49,4.97-5.36,9.06-20.17,14.56-27.41,4.25-5.59,11.57-10.73,17.49-14.49,27.49-17.45,74.53-39.77,104.92-53.01,14.07-6.13,28.97-10.13,43.2-15.77,38.92-15.44,68.62-32.21,112.26-32.76,18.85-.24,39-.68,57.89,1.09,3.13.29,4.22,3.02,8.63.41,28.32,15.73,60.07,27.28,86.54,45.37,3.39,2.32,7.23,3.15,10.41,6.59,2.96,3.2,3.79,8.12,6.43,10.56,2.1,1.95,6.01,2.73,8.46,4.54,9.8,7.24,17.95,35.34,25.33,46.13,6.21,3.77,15.25,6.4,21.06,10.43,11.18,7.76,21.15,42.04,29.88,54.06,1.82,50.52.23,101.45.8,152.12-22.41,39.04-18.66,76.32-21.03,118.86-1.91,34.19-10.04,75.49-7.98,108.9,1.44,23.33,10.75,47.83,6.93,71.89l-49.48,99.42-66.4,33.55-97.27.24c-29.07-15.23-58.52-25.36-82.73-48.21-1.4-1.32-2.29-3.75-3.42-4.58-3.29-2.41-13.29-4.48-17.21-7.72-31.49,12.38-63.9,36.92-97.27,43.27-30.51,5.81-50.42-15.53-76.75-25.27-4.84-1.79-7.3-3.06-12.33-.7l-86.27-42.59c-8.54,15.45-20.89,24.74-35.95,33.23-23.54,13.26-57.23,30.7-81.97,40.97-12.79,5.31-21.91,7.07-35.34,2-24.57-9.27-61.45-29.65-85.32-42.62-14.26-7.75-27.3-17.07-41.92-24.05l-27.55-54.41c-2.08-.45-1.35.89-1.98,1.98-4.26,7.41-7.35,15.98-11.7,23.31-11.26,18.97-36.67,43.26-55.77,54.17-23.22,13.26-60.15,32.48-84.64,42.3-13.29,5.33-23.86,5.73-37.33.62l-75.5-37.38c-20.42,8.45-39.92,21.17-60.12,29.76-2.76,1.17-7.38,3.45-10.09,3.9-13.27,2.24-46.2,1.01-60.79.28-44.69-2.24-83.81-35.04-124.46-51.46-22.63-13.74-29.04-40.91-41.55-62.56-2.9-.49-8.52,5.01-11.37,6.61-25.71,14.37-63.75,34.41-90.65,45.28-19.13,7.73-26.87-.15-43.68-7.63-28.26,12.69-55.7,29.55-83.96,41.92-35.2,15.41-66.73,30.42-106.14,27.79-47.26-3.16-127.19-44.52-169.48-68.41-24.44-13.81-36.28-26.66-50.14-50.8l-22.81-43.63-10.54,39.47,7.08,26.49c-29.21,59.3-59.59,117.99-92.56,175.29-36.2,25.75-76.67,43.97-116.49,63.42l-208.9.09c-41.17-24.47-115.5-43.8-140.6-86.28l-43.32-85.59-5.13,8.85-64.62,32.33-3.2.8-94.77-.25c-29.32-16.57-65.12-26.08-86.76-53.17l-16.6-7.33c-29.76,12.02-59.08,33.21-90.09,41.46-37.09,9.86-51.99-11.19-83.21-23.18-5.63-2.16-7.66-2.89-13.66-1.25l-85.26-42.76c-9.2-11.84-21.73-21.27-31.54-32.42-21.8-24.78-32.04-56.76-48.47-84.94v-101.53c0-51.78,10.88-103.04,32.44-150.12.12-.27.25-.54.37-.81,19.17-41.64,56.8-123.86,90.68-152.16,4.9-4.1,16.74-9.53,19.49-12.49,4.01-4.33,8.38-17.81,12.17-23.81,6.22-9.84,16.83-16.56,26.77-22.2,56.28-31.91,122.07-59.55,182.72-82.16,24.61-9.18,44.12-14.94,70.77-15.28,22.36-.28,45.44,0,67.44,2.45,25.61,14.69,55.42,25.49,80.67,40.35,3.16,1.86,12.51,7.94,14.78,10.2,3.52,3.5,3.93,7.75,6.49,10.5,3.83,4.12,8.68,3.22,13.65,10.34,8.09,11.6,13.26,28.47,20.63,40.82,10.82,6.17,25.38,8.66,29.22,22.24,2.58-2.54,3.66-6.38,5.97-9.02,2.86-3.27,7.96-5.29,10.55-8.44,1.85-2.24,2.33-5.56,4.46-7.54,5.75-5.34,25.55-10.54,30.25-15.23,3.2-3.2,10.52-22.56,14.09-28.38,4.87-7.91,14.97-12.38,23.14-16.84,29.77-16.27,65.71-34.54,96.63-48.3,97.97-43.57,177.43-4.97,263.61,42.08,4.91,1.51,8.53-1.59,11.66-.84l85.38,42.48c9.94-14.66,13.82-33.53,27.65-45.32,11.89-3.9,80.01-43.28,86.17-42.36,1.94.29,4.57,2.65,6.71,3.35,1.96.64,4.09.31,6.05.95,2.14.7,4.77,3.06,6.71,3.35,3.24.48,6.48-3.46,8.76-3.46,2.61,0,10.25,6.14,13.16,6.4,2.46.22,4.6-3.24,7.34-2.36l83.7,41.81c6.38,14.29,13.26,27.08,23.43,39.03l38.81,76.59c3.65-10.54,6.46-20.69,6.48-31.99l41.78-83.63c16.72-3.79,15.7-18.24,25.97-28.5l85.01-42.93c10.17-2.66,19.26.2,28.7,3.74,31.46,11.78,63.5,35.48,94.27,46.66,1.25.45,2.29,1.08,3.71.78l1.94-34.41-13.71-28.87,41.25-82.61,5.16-6.83,84.05-41.89c18.34-3,40.03.95,57.79-1.19,2.98-.36,4.67-2.12,7.91-2.07,18.99.32,33.48,20.5,52.58,17.5l91.93,46.48,5.48-29,43.07-85.85,70.43-36.02h121.96Z"></path>
    <path class="cls-2" d="M2378.28,0l39.95,20.52c9.21,14.57,29.41,18.48,41.02,30.94l45.04,89.87c2.52,7.73,2.1,15.87,1.82,23.9l-24.87,136.5c8.48.88,16.58,3.83,24.35,7.14,29.08,12.38,69.97,32.78,97.28,48.64,6.11,3.55,13.43,8.61,18.8,13.19,29.16,24.88,41.06,63.84,58.52,96.88l19.17-29.28c6.73-9.34,14.47-19.22,23.34-26.63,4.9-4.1,16.74-9.53,19.49-12.49,4.97-5.36,9.06-20.17,14.56-27.41,4.25-5.59,11.57-10.73,17.49-14.49,27.49-17.45,74.53-39.77,104.92-53.01,14.07-6.13,28.97-10.13,43.2-15.77,38.92-15.44,68.62-32.21,112.26-32.76,18.85-.24,39-.68,57.89,1.09,3.13.29,4.22,3.02,8.63.41,28.32,15.73,60.07,27.28,86.54,45.37,3.39,2.32,7.23,3.15,10.41,6.59,2.96,3.2,3.79,8.12,6.43,10.56,2.1,1.95,6.01,2.73,8.46,4.54,9.8,7.24,17.95,35.34,25.33,46.13,6.21,3.77,15.25,6.4,21.06,10.43,11.18,7.76,21.15,42.04,29.88,54.06,1.82,50.52.23,101.45.8,152.12-22.41,39.04-18.66,76.32-21.03,118.86-1.91,34.19-10.04,75.49-7.98,108.9,1.44,23.33,10.75,47.83,6.93,71.89l-49.48,99.42-66.4,33.55-97.27.24c-29.07-15.23-58.52-25.36-82.73-48.21-1.4-1.32-2.29-3.75-3.42-4.58-3.29-2.41-13.29-4.48-17.21-7.72-31.49,12.38-63.9,36.92-97.27,43.27-30.51,5.81-50.42-15.53-76.75-25.27-4.84-1.79-7.3-3.06-12.33-.7l-86.27-42.59c-8.54,15.45-20.89,24.74-35.95,33.23-23.54,13.26-57.23,30.7-81.97,40.97-12.79,5.31-21.91,7.07-35.34,2-24.57-9.27-61.45-29.65-85.32-42.62-14.26-7.75-27.3-17.07-41.92-24.05l-27.55-54.41c-2.08-.45-1.35.89-1.98,1.98-4.26,7.41-7.35,15.98-11.7,23.31-11.26,18.97-36.67,43.26-55.77,54.17-23.22,13.26-60.15,32.48-84.64,42.3-13.29,5.33-23.86,5.73-37.33.62l-75.5-37.38c-20.42,8.45-39.92,21.17-60.12,29.76-2.76,1.17-7.38,3.45-10.09,3.9-13.27,2.24-46.2,1.01-60.79.28-44.69-2.24-83.81-35.04-124.46-51.46-22.63-13.74-29.04-40.91-41.55-62.56-2.9-.49-8.52,5.01-11.37,6.61-25.71,14.37-63.75,34.41-90.65,45.28-19.13,7.73-26.87-.15-43.68-7.63-28.26,12.69-55.7,29.55-83.96,41.92-35.2,15.41-66.73,30.42-106.14,27.79-47.26-3.16-127.19-44.52-169.48-68.41-24.44-13.81-36.28-26.66-50.14-50.8l-22.81-43.63-10.54,39.47,7.08,26.49c-29.21,59.3-59.59,117.99-92.56,175.29-36.2,25.75-76.67,43.97-116.49,63.42l-208.9.09c-41.17-24.47-115.5-43.8-140.6-86.28l-43.32-85.59-5.13,8.85-64.62,32.33-3.2.8-94.77-.25c-29.32-16.57-65.12-26.08-86.76-53.17l-16.6-7.33c-29.76,12.02-59.08,33.21-90.09,41.46-37.09,9.86-51.99-11.19-83.21-23.18-5.63-2.16-7.66-2.89-13.66-1.25l-85.26-42.76c-9.2-11.84-21.73-21.27-31.54-32.42-21.8-24.78-32.04-56.76-48.47-84.94v-101.53c0-51.78,10.88-103.04,32.44-150.12.12-.27.25-.54.37-.81,19.17-41.64,56.8-123.86,90.68-152.16,4.9-4.1,16.74-9.53,19.49-12.49,4.01-4.33,8.38-17.81,12.17-23.81,6.22-9.84,16.83-16.56,26.77-22.2,56.28-31.91,122.07-59.55,182.72-82.16,24.61-9.18,44.12-14.94,70.77-15.28,22.36-.28,45.44,0,67.44,2.45,25.61,14.69,55.42,25.49,80.67,40.35,3.16,1.86,12.51,7.94,14.78,10.2,3.52,3.5,3.93,7.75,6.49,10.5,3.83,4.12,8.68,3.22,13.65,10.34,8.09,11.6,13.26,28.47,20.63,40.82,10.82,6.17,25.38,8.66,29.22,22.24,2.58-2.54,3.66-6.38,5.97-9.02,2.86-3.27,7.96-5.29,10.55-8.44,1.85-2.24,2.33-5.56,4.46-7.54,5.75-5.34,25.55-10.54,30.25-15.23,3.2-3.2,10.52-22.56,14.09-28.38,4.87-7.91,14.97-12.38,23.14-16.84,29.77-16.27,65.71-34.54,96.63-48.3,97.97-43.57,177.43-4.97,263.61,42.08,4.91,1.51,8.53-1.59,11.66-.84l85.38,42.48c9.94-14.66,13.82-33.53,27.65-45.32,11.89-3.9,80.01-43.28,86.17-42.36,1.94.29,4.57,2.65,6.71,3.35,1.96.64,4.09.31,6.05.95,2.14.7,4.77,3.06,6.71,3.35,3.24.48,6.48-3.46,8.76-3.46,2.61,0,10.25,6.14,13.16,6.4,2.46.22,4.6-3.24,7.34-2.36l83.7,41.81c6.38,14.29,13.26,27.08,23.43,39.03l38.81,76.59c3.65-10.54,6.46-20.69,6.48-31.99l41.78-83.63c16.72-3.79,15.7-18.24,25.97-28.5l85.01-42.93c10.17-2.66,19.26.2,28.7,3.74,31.46,11.78,63.5,35.48,94.27,46.66,1.25.45,2.29,1.08,3.71.78l1.94-34.41-13.71-28.87,41.25-82.61,5.16-6.83,84.05-41.89c18.34-3,40.03.95,57.79-1.19,2.98-.36,4.67-2.12,7.91-2.07,18.99.32,33.48,20.5,52.58,17.5l91.93,46.48,5.48-29,43.07-85.85L2256.31,0h121.96Z"></path>
    <g>
      <path class="cls-1" d="M472.89,385.45h10.42c-.13.94.27,1.39,1.2,1.39s1.91-.45,2.97-1.39h2.78l12.32,1.39h2.78c2.31,0,3.87.47,4.67,1.39,1.85,0,2.84-.45,2.97-1.39h1.39c-.13.94-.66,1.39-1.58,1.39-.13.94-.66,1.39-1.58,1.39l-.19,1.39h8.34l8.88,6.25h-2.78c-1.86,0-3.78.47-5.75,1.39h-2.78c-2.17,2.33-2.08,4.17.29,5.56,2.35,1.39,5.8,2.43,10.34,3.13,4.53.69,7.03,1.04,7.5,1.04l1.9,1.39c.92,0,3.11.94,6.57,2.78l4.62,6.95.16,9.03-.38,2.78-.75,5.56c-1.26,9.27-3.74,13.89-7.44,13.89h-2.78c-.81-.92-1.67-1.39-2.59-1.39s-1.45.47-1.58,1.39h1.39c4.31,2.33,6.87,3.94,7.68,4.86,2.59,1.39,3.79,2.78,3.6,4.17-.53.47-.13.94,1.2,1.39,2.18.94,3.98,1.39,5.37,1.39l-1.2-1.39c4.04.94,7.66,3.25,10.87,6.95,1.59,1.86,3.32,2.78,5.18,2.78.92,0,2.69-.23,5.3-.69,2.6-.45,4.61-.69,6-.69,1.97-.92,4.81-1.39,8.53-1.39h2.08c4.52,4.17,7.66,11.81,9.4,22.93.77,14.83-2.19,36.59-8.86,65.3-2.46,7.88-7.8,20.74-16,38.56-8.22,17.84-13.21,31.61-14.99,41.34-1.45,10.66-2.38,24.32-2.78,40.99.24,15.28-1.1,37.98-4.03,68.08-2.93,30.11-4.24,52.57-3.93,67.39-.19,1.39.23,5.1,1.27,11.12,1.03,6.03,2.11,12.63,3.22,19.8,1.11,7.19,1.87,14.36,2.29,21.54.41,7.19.29,13.2-.37,18.06s-2.15,7.29-4.46,7.29h-1.39c-2.78,0-4.3.94-4.55,2.78.95,3.25,2.12,4.86,3.51,4.86l-.19,1.39c-.93,0-2.86.59-5.79,1.74-2.94,1.16-4.44,1.98-4.5,2.43l-2.59-1.39c-.13.94-.72,1.86-1.77,2.78l-2.97,1.39c-1.39,0-2.49-.45-3.29-1.39l-.19,1.39h-4.17l-1.58,1.39h-2.78c-2.78,0-4.04-.92-3.79-2.78-1.06.94-3.44,1.39-7.14,1.39-11.58,0-25.98-9.95-43.19-29.87-9.21-10.65-17.23-21.54-24.05-32.65-.74-1.39-2.14-4.74-4.19-10.07-2.06-5.32-4.24-9.73-6.55-13.2-2.31-3.47-5.03-5.66-8.14-6.6h-2.78l-9.09,5.56-14.01,11.12c-.53.47-2.77,1.63-6.72,3.47-3.96,1.86-6.47,3.25-7.51,4.17.58-.92,1.33-3.01,2.24-6.25.89-3.23,1.68-5.56,2.33-6.95-14.61,1.86-35.38,10.66-62.29,26.4-26.92,15.75-49.18,23.62-66.77,23.62-.47,0-1.36-.23-2.68-.69-1.33-.45-2.23-.69-2.68-.69-4.17,0-14.79-4.52-31.86-13.55-17.08-9.03-27.46-13.55-31.16-13.55h-1.39c-.47,0-.97.24-1.48.69-.53.47-1.03.69-1.48.69s-1.01-.23-1.64-.69c-.63-.45-1.19-.69-1.64-.69.52-.45-1.15-2.66-5.01-6.6-3.87-3.93-8.04-8.22-12.5-12.85l-6.79-6.25c-13.01-13.43-22.28-26.97-27.83-40.64-5.56-13.65-7.38-29.28-5.45-46.89,1.92-17.59,4.67-32.76,8.26-45.5,3.57-12.73,9.75-30.92,18.51-54.54,3.82-11.12,6.96-19.8,9.44-26.05,2.46-6.25,6.43-15.86,11.9-28.83,5.46-12.96,10.86-23.73,16.19-32.3,5.33-8.56,11.43-17.72,18.31-27.44,6.88-9.73,14.42-17.59,22.66-23.62,8.22-6.01,16.89-10.18,26.01-12.5,2.37-.45,5.78-4.17,10.19-11.12,4.42-6.95,7.84-10.87,10.29-11.81.52-.45.75-1.27.68-2.43-.08-1.15-.58-1.74-1.5-1.74-.47,0-.97.24-1.48.69-.53.47-1.03.69-1.48.69-5.81,1.86-10.13,4.64-12.94,8.34l.19-1.39h-2.78c2.14-5.56,7.16-11,15.07-16.33,7.9-5.32,15.18-9.49,21.84-12.5,6.66-3.01,15.94-6.6,27.86-10.77,11.91-4.17,19.08-6.71,21.53-7.64,45.43-20.84,79.03-31.26,100.81-31.26,6.95,0,11.75.47,14.4,1.39,2.9-.92,8.53-1.39,16.86-1.39ZM397.36,522.31c-1.86,0-3.59-.92-5.18-2.78-.93,0-8.79,4.17-23.58,12.5-14.8,8.34-24.27,14.14-28.41,17.37-36.72,28.26-65.61,58.6-86.68,91.01-5.3,8.34-10.2,19.69-14.69,34.04-4.5,14.36-7.62,28.83-9.36,43.42-1.75,14.59-.47,27.33,3.85,38.21,4.31,10.89,11.79,16.33,22.45,16.33,8.34,0,17.75-2.78,28.23-8.34h-2.78c1.91-.45,4.91-1.27,9.01-2.43,4.09-1.15,6.84-1.74,8.22-1.74,2.78,0,4.56.47,5.37,1.39h1.39c1.85,0,11.66-9.14,29.43-27.44,17.76-18.29,27.6-27.67,29.52-28.14l.19-1.39-.19,1.39,1.58-1.39,13-13.89,10.82-13.2c11.61-13.89,25.97-33.57,43.09-59.05,17.11-25.46,26.49-44.22,28.13-56.27.88-6.48-1.11-10.65-5.95-12.5-1.06.94-2.05,1.39-2.97,1.39l-2.38-13.2h2.78c2.78,0,2.84-.45.19-1.39-1.39,0-2.58-.69-3.54-2.08-.97-1.39-1.86-2.54-2.66-3.47.31-2.31,1.68-5.56,4.1-9.73,2.41-4.17,4.64-6.95,6.69-8.34h-6.95c-18.85,2.33-31.44,4.64-37.76,6.95l-5.75,1.39c-3.84.94-6.91,1.39-9.22,1.39Z"></path>
      <path class="cls-1" d="M1695.93,362.53c18.7,5.56,35.99,14.59,51.9,27.09,4.8,5.56,7.57,9.03,8.31,10.42l1.97,11.12,2.89,29.87c.95,3.25.05,10.66-2.67,22.23-2.73,11.58-4.25,18.53-4.56,20.84l-.38,2.78-7.66,25.7c-.32,2.33,1.68,4.64,6,6.95-.28-1.39-.16-3.93.34-7.64.5-3.7.64-6.48.44-8.34.92,0,1.51-.92,1.77-2.78,4.11,10.66,5.48,28.72,4.11,54.19-1.37,25.48-1.77,41.23-1.2,47.24,3.59,58.82.24,102.36-10.08,130.61l-.19,1.39c-.66,1.39-.72,4.41-.18,9.03.52,4.64.83,8.34.92,11.12.08,2.78-.93,5.1-3.03,6.95l1.2,1.39-.19,1.39c-.81-.92-1.67-1.39-2.59-1.39-.53.47-.7,1.74-.52,3.82.17,2.08-.03,3.59-.61,4.52l-2.61,9.03-.19,1.39-1.2-1.39c.38-2.78-.5-4.86-2.63-6.25-1.61-1.84-2.87-2.78-3.79-2.78s-1.44,1.16-1.51,3.47c-.09,2.33-.22,4.98-.39,7.99-.18,3.02-.92,5.91-2.22,8.68-.75,5.56-2.9,11.12-6.43,16.67h-1.39c-7.37,6.49-16.07,10.89-26.11,13.2h-4.17c-6.49,0-12.71-2.78-18.67-8.34-5.97-5.56-11.17-9.03-15.61-10.42h-1.39c-1.39,0-5.05,1.39-10.99,4.17-28.24,20.39-44.99,32.89-50.25,37.51-1.58,1.39-4.32,2.78-8.21,4.17-3.9,1.39-6.4,2.78-7.51,4.17-7.2,1.86-18.45,6.25-33.75,13.2-15.3,6.95-27.45,11.12-36.43,12.5-4.76.94-11.3,1.39-19.64,1.39-19.92,0-40.03-3.7-60.32-11.12-12.07-3.23-25.87-9.03-41.41-17.37-9.04-5.09-17.14-11.12-24.3-18.06-7.17-6.95-13.8-16.09-19.9-27.44-6.1-11.34-10.62-19.91-13.53-25.7-2.93-5.78-7.34-16.78-13.24-33-5.91-16.21-9.37-25.7-10.38-28.48-.28-1.39-3.1-8.79-8.45-22.23-5.36-13.43-9.92-25.93-13.67-37.51-3.76-11.57-4.78-18.52-3.08-20.84l-.82-4.17.19-1.39h2.78c-.31-4.62-.85-11.69-1.64-21.19-.8-9.49-1.27-17.13-1.41-22.93-.15-5.78-.13-12.73.05-20.84.16-8.1.99-15.86,2.46-23.27l1.41-10.42,5.61-20.84.21-11.81,3.11-22.93c1.57-11.57,6.67-28.71,15.31-51.41,8.64-22.68,16.81-36.82,24.51-42.38.79.94,1.53,2.33,2.21,4.17l1.01,2.78,2.97-1.39,2.97-1.39c2.31,0,5.19.94,8.65,2.78l6.48,3.47c.98-.45,1.55-1.15,1.67-2.08.52-.45,1.08-1.15,1.67-2.08.64-1.39,1.2-2.08,1.67-2.08-.53.47-.51,1.16.06,2.08.57.94,1.25,1.86,2.05,2.78.79.94,1.14,1.86,1.01,2.78l1.2,1.39c3.7,0,6.54-.45,8.53-1.39.98-.45,1.86-.92,2.62-1.39.76-.45,1.51-.92,2.27-1.39.76-.45,1.36-.69,1.83-.69l-1.67,2.08c1.43,6.49,6.77,14.94,16.01,25.36,9.23,10.42,14.09,20.74,14.56,30.92.38,7.42-2.53,25.48-8.74,54.19-3.13,16.22-5.84,39.6-8.13,70.17.14,2.33-.91,9.27-3.17,20.84-2.27,11.58-2.54,17.84-.81,18.76.39.47.09,1.04-.93,1.74-1.03.69-2.27,1.39-3.76,2.08-1.48.69-2.5,1.28-3.01,1.74,3.16,7.42,7.95,19,14.39,34.74,6.43,15.75,12.58,29.3,18.45,40.64,5.86,11.36,12.71,22.35,20.53,33,9.2,10.66,16.73,18.3,22.59,22.93,12.17,9.27,27.75,13.89,46.75,13.89,7.4,0,13.02-.45,16.86-1.39,32.65-5.09,55.63-20.84,68.93-47.24,33.62-63.45,49.99-127.83,49.13-193.13.22-5.09.27-12.26.14-21.54-.13-9.26-.17-17.59-.08-25.01.07-7.4.35-14.59.84-21.54.63-4.62,3.93-14.47,9.91-29.53,5.97-15.04,8.21-25.58,6.72-31.61.19-1.39.74-2.08,1.67-2.08h-1.39c.46,0,1.88-.23,4.26-.69,2.37-.45,3.93-.8,4.66-1.04.73-.23,1.74-.92,3.06-2.08,1.31-1.15,2.32-2.66,3.04-4.52.64-1.39,1.51-3.47,2.58-6.25s1.94-4.97,2.63-6.6c.68-1.62,1.84-3.35,3.49-5.21,1.64-1.84,3.64-3.01,6.03-3.47h11.12Z"></path>
      <path class="cls-1" d="M1986.88,218.68c7.4,0,13.01,1.39,16.8,4.17l11.82,15.28c5.47-2.78,8.66-4.17,9.6-4.17-.13.94.27,1.39,1.2,1.39-1.06.94-1.7,2.33-1.95,4.17l1.11,2.08c1.39,0,3.39-1.15,6.03-3.47l3.16-2.78h1.39c4.62,0,6.88.47,6.76,1.39l-.85,6.25h2.78l1.58-1.39c-.06.47.72.59,2.38.35,1.65-.23,3.25-.11,4.82.35,1.55.47,1.97,1.63,1.27,3.47l-.19,1.39c-.75,5.56-.87,9.73-.31,12.5-.66,1.39-.63,7.99.09,19.8.71,11.81.85,21.88.42,30.22-.44,8.34-2.76,14.36-6.97,18.06-.69-1.84-1.48-2.78-2.4-2.78-4.35,11.58-8.07,41.58-11.16,89.97-3.09,48.4-1.16,72.6,5.78,72.6,1.28,4.17.41,11.46-2.62,21.88-3.04,10.42-4.14,17.72-3.32,21.88l1.58-1.39.19-1.39c4.37,1.86,7.04,4.41,7.99,7.64.95,3.25,1.15,6.03.61,8.34-.56,2.33-1.84,5.91-3.89,10.77-2.05,4.86-3.44,8.23-4.15,10.07-2.46,7.88-3.42,26.87-2.86,56.97,3.27,68.08,2.22,87.79-2.16,195.23l-.38,2.78c-1.17,22.23,1.45,37.06,7.86,44.46,1.34,3.71,1.9,6.49,1.65,8.34-.19,1.39-3.69,3.25-10.48,5.56h-58.36c-18.06,0-31.82-2.78-41.25-8.34-13.36-7.4-22.74-20.15-28.16-38.21-2.54-12.04-4.05-28.24-4.52-48.63-1.4-27.32.78,18.05,5.56-.02.38-2.78,3.64-11.46,9.79-26.05,6.15-14.59,8.3-25.36,6.47-32.3-.41-.45-.22-1.84.57-4.17l1.77-2.78-2.12-4.86,2.97-1.39h2.78l-1.58,1.39h1.39l.38-2.78h-1.39c-1.86,0-3.84.94-5.93,2.78-2.64,2.33-5.11,3.47-7.42,3.47-3.71,0-5.02-3.93-3.96-11.81l.38-2.78-1.2-1.39c-.94,0-1.45.47-1.58,1.39-1.76-4.17-2.67-9.38-2.74-15.63-.09-6.25.23-11.92.92-17.02.69-5.09,1.78-11.46,3.29-19.1,1.49-7.64,2.47-13.08,2.91-16.33l7.31-74.34c.16-4.62,1.16-14.59,3.01-29.87,1.83-15.28,2.86-27.09,3.07-35.43.16-4.62.14-9.61-.06-14.94-.21-5.32-.58-11.12-1.12-17.37s-.8-11.22-.75-14.94l.75-5.56c.31-2.31.93-5.21,1.87-8.68.93-3.47,1.53-6.13,1.78-7.99l4.05-29.87c-1.06.94-1.19,1.86-.38,2.78h-2.78l-6.36-14.59h1.39l2.97-1.39,1.48-.69-1.3-.69h-1.39c-1.39,0-2.58-.69-3.54-2.08-.97-1.39-1.92-2.08-2.84-2.08-.56-2.78,1.73-12.73,6.83-29.87,1.93-7.4,4.06-19.68,6.38-36.82,1.51-11.12,3.15-30.1,4.95-56.97.75-5.56.79-9.26.12-11.12-1.57-5.56-6.23-10.42-14-14.59.25-1.84,1.42-3.7,3.53-5.56h5.56c11.7-.92,29.37-1.39,52.99-1.39.45,0,1.18-.23,2.18-.69.98-.45,1.71-.69,2.18-.69Z"></path>
      <path class="cls-1" d="M2320.92,109.42c2.78,0,4.77.69,5.97,2.08,1.2,1.39,1.43,3.02.73,4.86.92,0,6.51,3.25,16.74,9.73,10.23,6.49,16.02,9.97,17.34,10.42,8.57,5.1,11.41,18.3,8.52,39.6-12.84,63.91-20.62,136.14-41.91,198.88-5.35,12.05-7.5,21.08-6.45,27.09,3.29,6.49,5.1,10.19,5.44,11.12,1.68,4.64,1.73,9.38.15,14.24-1.6,4.86-2.42,10.19-2.51,15.98-.09,5.8,1.99,10.07,6.25,12.85,3.45,1.86,6.8,2.78,10.04,2.78,6.95,0,21.39-5.78,43.34-17.37,19.32-9.26,39.4-13.89,60.24-13.89,25.93,0,49.32,6.84,70.17,20.49,20.83,13.67,36.14,32.3,45.91,55.93,5.48,17.61,7.48,31.96,5.97,43.07-.69,5.1-1.78,11.36-3.24,18.76-1.47,7.42-2.42,12.75-2.86,15.98-.44,3.25-.29,7.29.43,12.16.73,4.86,2.17,9.62,4.32,14.24,1.47,2.78,4.5,5.21,9.08,7.29,4.58,2.08,7.2,4.06,7.88,5.91.67,1.86-1.01,7.42-5.04,16.67l-.19,1.39c-1.12,1.39-1.74,3.37-1.84,5.91-.12,2.55-.48,4.29-1.05,5.21h-3.47c-1.86,0-2.45.94-1.77,2.78l.54,6.25-.38,2.78,4.23-5.56c1.01,2.78,5.13,6.49,12.39,11.12l17.25,11.12c5.98,3.71,8.25,10.89,6.8,21.54-.06.47-2.8,10.42-8.22,29.87-2.57,12.05-3.69,30.57-3.37,55.58-.48,17.14-2.98,32.2-7.52,45.16-7.59,21.78-20.08,37.06-37.48,45.85-6.65,4.64-14.61,6.95-23.87,6.95-6.49,0-13.35-2.31-20.59-6.95-1.26-.92-4.4-2.66-9.37-5.21-4.99-2.54-8.81-5.09-11.47-7.64-2.68-2.54-3.84-4.97-3.53-7.29l.19-1.39-1.58,1.39-1.58,1.39h-1.39l-4.07-.69c-2.72-.45-3.95-1.62-3.7-3.47l1.58-1.39c.5-3.7.2-8.34-.89-13.89.77-2.31.58-10.3-.57-23.97-1.17-13.65-1.77-25.36-1.84-35.08s2.02-16.67,6.3-20.84c.79.94,1.14,1.86,1.01,2.78h1.39c1.95-4.17,3.09-13.43,3.42-27.79.32-14.35.03-25.01-.88-31.96l-1.46-9.73,1.58-1.39c-.94-10.18.02-26.63,2.87-49.33,2.84-22.68,3.8-39.13,2.87-49.33,1.11-1.39,1.84-2.54,2.21-3.47.35-.92.39-2.08.12-3.47-4.17,0-7.2,1.86-9.09,5.56l-13.35,6.25c-4.64,0-7.23-3.01-7.81-9.03l-1.01-2.78c.13-.92-.28-1.39-1.2-1.39-1.06.94-2.05,1.39-2.97,1.39l-4.99-4.17c.13-.92,1.11-1.39,2.97-1.39-.26-8.34-3.51-15.98-9.74-22.93-6.25-6.95-13.61-11.57-22.08-13.89-9.02-1.84-15.6-2.78-19.77-2.78-22.7,0-42.03,11.01-57.97,33-15.96,22-26.98-13.73-33.06,14.06-.44,3.25-1.15,6.72-2.11,10.42-.72,1.86-.62,2.78.32,2.78h2.78l-.38,2.78c-.94,0-1.8-.45-2.59-1.39l-.19,1.39c-1.19,1.86-2.1,6.03-2.74,12.5-.65,6.49-1.43,11.36-2.33,14.59l-6.18,9.73c-.63,4.64-.62,7.88.07,9.73-.19,1.39-.92,3.37-2.19,5.91-1.28,2.55-2,4.52-2.19,5.91-.13.94.2,1.86,1.01,2.78-.63,4.64-1.41,6.95-2.33,6.95l-3.49,25.7-1.91,24.32c-2.39,17.61-1.84,28.95,1.63,34.04-5.54,3.25-8.98,7.29-10.33,12.16-1.35,4.86-1.6,10.89-.71,18.06.87,7.19.83,12.63-.13,16.33-5.66,24.56-22.42,47.48-50.32,68.78-4.86,5.1-11.22,9.27-19.06,12.5-5.81,1.86-10.57,2.78-14.27,2.78-15.75,0-27.21-6.01-34.37-18.06-1.48-2.78-2.81-5.78-3.99-9.03-1.19-3.23-1.95-6.13-2.3-8.68-.35-2.54-.57-6.01-.67-10.42-.1-4.4-.16-7.4-.16-9.03-.02-1.62.24-5.21.77-10.77.51-5.56.88-9.03,1.07-10.42,3.27-24.07,5.48-37.05,6.67-38.9l-.19,1.39,1.11,2.08h1.39c3.94-12.04,6.65-31.96,8.1-59.75l-.16-9.03c.19-1.39,1.14-4.17,2.87-8.34,1.71-4.17,2.68-6.95,2.87-8.34.83-2.78,1.26-7.64,1.28-14.59,0-6.95.12-11.12.31-12.5.06-.45.04-2.08-.04-4.86-.09-2.78,0-5.09.25-6.95.25-1.84.83-2.78,1.77-2.78.25-1.84-.03-3.23-.82-4.17l3.3-24.32h3.47c1.42-3.7,2.2-6.01,2.33-6.95h-1.39c-.94,0-1.81-1.27-2.61-3.82-.82-2.54-1.53-4.97-2.14-7.29l-.82-4.17c2.39-17.59,5.03,13.27,7.94-28.65,2.91-41.91,6.32-73.99,10.27-96.22,13.84-71.32,18.37-151.6,33.46-228.75,1.86-6.95,5.44-18.86,10.76-35.78,5.3-16.9,9.6-31.61,12.93-44.11,3.31-12.5,5.79-24.77,7.43-36.82.45,0,8.59-2.78,24.4-8.34,15.8-5.56,26.94-8.34,33.44-8.34Z"></path>
      <path class="cls-1" d="M3043.36,385.45h10.42c-.13.94.27,1.39,1.2,1.39s1.9-.45,2.97-1.39h2.78l12.32,1.39h2.78c2.31,0,3.86.47,4.67,1.39,1.84,0,2.84-.45,2.97-1.39h1.39c-.13.94-.66,1.39-1.58,1.39-.13.94-.66,1.39-1.58,1.39l-.19,1.39h8.34l8.88,6.25h-2.78c-1.86,0-3.78.47-5.75,1.39h-2.78c-2.17,2.33-2.08,4.17.29,5.56,2.35,1.39,5.8,2.43,10.34,3.13,4.53.69,7.03,1.04,7.5,1.04l1.9,1.39c.92,0,3.11.94,6.57,2.78l4.62,6.95.16,9.03-.38,2.78-.75,5.56c-1.26,9.27-3.74,13.89-7.44,13.89h-2.78c-.81-.92-1.67-1.39-2.59-1.39s-1.45.47-1.58,1.39h1.39c4.31,2.33,6.87,3.94,7.68,4.86,2.59,1.39,3.79,2.78,3.6,4.17-.53.47-.13.94,1.2,1.39,2.18.94,3.98,1.39,5.37,1.39l-1.2-1.39c4.04.94,7.66,3.25,10.87,6.95,1.59,1.86,3.32,2.78,5.18,2.78.92,0,2.69-.23,5.3-.69,2.6-.45,4.61-.69,6-.69,1.97-.92,4.81-1.39,8.53-1.39h2.08c4.52,4.17,7.66,11.81,9.4,22.93.77,14.83-2.19,36.59-8.86,65.3-2.46,7.88-7.8,20.74-16,38.56-8.22,17.84-13.21,31.61-14.99,41.34-1.45,10.66-2.38,24.32-2.78,40.99.24,15.28-1.1,37.98-4.03,68.08-2.94,30.11-4.25,52.57-3.93,67.39-.19,1.39.23,5.1,1.27,11.12,1.03,6.03,2.11,12.63,3.22,19.8,1.11,7.19,1.87,14.36,2.29,21.54.41,7.19.29,13.2-.37,18.06-.66,4.86-2.15,7.29-4.46,7.29h-1.39c-2.78,0-4.3.94-4.55,2.78.95,3.25,2.12,4.86,3.51,4.86l-.19,1.39c-.94,0-2.86.59-5.79,1.74-2.94,1.16-4.44,1.98-4.5,2.43l-2.59-1.39c-.13.94-.72,1.86-1.77,2.78l-2.97,1.39c-1.39,0-2.49-.45-3.29-1.39l-.19,1.39h-4.17l-1.58,1.39h-2.78c-2.78,0-4.04-.92-3.79-2.78-1.06.94-3.44,1.39-7.14,1.39-11.58,0-25.98-9.95-43.19-29.87-9.22-10.65-17.23-21.54-24.05-32.65-.75-1.39-2.14-4.74-4.19-10.07-2.06-5.32-4.24-9.73-6.55-13.2-2.31-3.47-5.03-5.66-8.14-6.6h-2.78l-9.09,5.56-14.01,11.12c-.53.47-2.77,1.63-6.72,3.47-3.97,1.86-6.47,3.25-7.51,4.17.58-.92,1.33-3.01,2.24-6.25.89-3.23,1.68-5.56,2.33-6.95-14.61,1.86-35.38,10.66-62.29,26.4-26.92,15.75-49.18,23.62-66.77,23.62-.47,0-1.36-.23-2.68-.69-1.33-.45-2.23-.69-2.68-.69-4.17,0-14.79-4.52-31.86-13.55-17.08-9.03-27.46-13.55-31.16-13.55h-1.39c-.47,0-.97.24-1.48.69s-1.03.69-1.48.69-1.01-.23-1.64-.69c-.63-.45-1.19-.69-1.64-.69.52-.45-1.15-2.66-5.01-6.6-3.88-3.93-8.04-8.22-12.5-12.85l-6.79-6.25c-13.01-13.43-22.29-26.97-27.83-40.64-5.56-13.65-7.38-29.28-5.45-46.89,1.92-17.59,4.67-32.76,8.26-45.5,3.57-12.73,9.75-30.92,18.51-54.54,3.82-11.12,6.96-19.8,9.44-26.05,2.46-6.25,6.43-15.86,11.9-28.83,5.46-12.96,10.86-23.73,16.19-32.3,5.33-8.56,11.43-17.72,18.31-27.44,6.88-9.73,14.42-17.59,22.66-23.62,8.22-6.01,16.89-10.18,26.01-12.5,2.37-.45,5.78-4.17,10.19-11.12,4.42-6.95,7.83-10.87,10.29-11.81.52-.45.75-1.27.68-2.43-.09-1.15-.58-1.74-1.5-1.74-.47,0-.97.24-1.48.69-.53.47-1.03.69-1.48.69-5.81,1.86-10.13,4.64-12.94,8.34l.19-1.39h-2.78c2.14-5.56,7.16-11,15.07-16.33,7.9-5.32,15.18-9.49,21.84-12.5,6.66-3.01,15.94-6.6,27.86-10.77,11.91-4.17,19.08-6.71,21.53-7.64,45.43-20.84,79.03-31.26,100.81-31.26,6.95,0,11.75.47,14.4,1.39,2.9-.92,8.53-1.39,16.86-1.39ZM2967.83,522.31c-1.86,0-3.59-.92-5.18-2.78-.94,0-8.8,4.17-23.58,12.5-14.8,8.34-24.27,14.14-28.41,17.37-36.73,28.26-65.61,58.6-86.68,91.01-5.3,8.34-10.21,19.69-14.69,34.04-4.5,14.36-7.63,28.83-9.36,43.42-1.75,14.59-.48,27.33,3.85,38.21,4.31,10.89,11.79,16.33,22.45,16.33,8.34,0,17.75-2.78,28.23-8.34h-2.78c1.9-.45,4.91-1.27,9.01-2.43,4.08-1.15,6.84-1.74,8.22-1.74,2.78,0,4.56.47,5.37,1.39h1.39c1.84,0,11.66-9.14,29.43-27.44,17.76-18.29,27.6-27.67,29.52-28.14l.19-1.39-.19,1.39,1.58-1.39,13-13.89,10.82-13.2c11.61-13.89,25.97-33.57,43.09-59.05,17.11-25.46,26.49-44.22,28.13-56.27.88-6.48-1.11-10.65-5.95-12.5-1.06.94-2.05,1.39-2.97,1.39l-2.38-13.2h2.78c2.78,0,2.84-.45.19-1.39-1.39,0-2.58-.69-3.54-2.08-.97-1.39-1.86-2.54-2.66-3.47.31-2.31,1.68-5.56,4.1-9.73,2.41-4.17,4.64-6.95,6.69-8.34h-6.95c-18.85,2.33-31.44,4.64-37.76,6.95l-5.75,1.39c-3.84.94-6.91,1.39-9.22,1.39Z"></path>
      <path class="cls-1" d="M1104.67,907.64l-49.09,90.14c-19.33,10.05-31.63,26.48-63.88,35.32-31.1,8.47-68.18,9.77-111.26,3.89-43.07-5.89-76.71-18.99-100.9-39.29-11.71-9.83-19.78-21.26-24.2-34.29-4.4-11.02-7.51-19.78-9.34-26.3-1.83-6.52-3.1-14.42-3.81-23.65-.71-9.25,2.59-14.63,9.89-16.15,7.31-1.52,18.32.91,33.07,7.3,2.73,1.62,20.23,5.83,52.52,12.65,32.29,6.8,50.57,12.02,54.87,15.63,1.56,1.31,1.97,2.3,1.2,3l1.17.98c-.76.69-.36,1.69,1.2,3,.78.65,2.22.7,4.34.15,2.12-.57,3.93-1.19,5.47-1.9l2.87-1.58c3.84-.77,6.53-1.85,8.05-3.22l-20.84-1.53c33.41-3.99,64.99-10.13,94.74-18.42l-3.35-44.08,11.96-29.36c4.75-9.42,8.47-19.34,11.16-29.77,2.69-10.43,5.13-22.74,7.32-36.95,2.19-14.19-10.17,2.1-8.85-4.67,7.57-26.74,7.76,12.16,1.17,3.65-20.81,19.26-37.69,31.3-50.65,36.14l-1.42.11-1.5,1.55-2.13.17-5.75,1.89-8.58,2.11-12.87,3.17c-8.61,2.6-14.09,3.98-16.45,4.17l-1.42.11-1.22-3.47c.05-.95.57-1.94,1.57-2.98l1.34,1.32c-.45-.43,1.04-1.98,4.49-4.64,1.96-1.58,2.96-2.61,2.99-3.09-32.22-4.07-64.86-4.78-97.91-2.14l-5.67.45c-40.62,3.25-78.6-24.36-113.93-82.84-16.01-25.33-23.59-45.63-22.75-60.91.63-11.46,6.26-28.54,16.92-51.26,1.57-2.98,5.44-11.36,11.61-25.17,6.16-13.79,11.96-25.07,17.37-33.83,5.42-8.74,11.34-15.99,17.77-21.74l9.09-11.42c13.83-20.59,19.51-34.11,17.04-40.58l-1.42.11c-1.42.11-2.63.69-3.62,1.72l-1.42.11c-.48.04-.21-.57.81-1.85,1-1.26,2.02-2.66,3.05-4.17,1.02-1.51,1.55-2.5,1.57-2.98.54-1.47,3.27-3.94,8.17-7.43,4.89-3.48,7.14-5.92,6.75-7.31.21-3.81,4.8-6.09,13.77-6.81l8.5-.68c.94-.08,2.97-.7,6.1-1.91,3.12-1.2,4.91-1.82,5.39-1.86.94-.08,1.36.85,1.26,2.75l1.34,1.32c.94-.08,1.47-1.06,1.57-2.98l1.42-.11,2.91-1.66,2.13-.17,4.33-1.77c.49-.51.64-1,.43-1.46-.22-.45-1.25-.85-3.11-1.18-1.87-.32-3.02-.7-3.46-1.15,12.56-6.23,8.86-3.12,6.98-11.52-.42-.91-1.03-2.65-1.83-5.2-.81-2.54-1.38-4.99-1.71-7.35-.35-2.34-.23-4.49.35-6.44,1.57-2.98,5-5.62,10.31-7.96,28.72-17.99,60.56-28.38,95.51-31.18,11.33-.91,26.35-.44,45.06,1.38,11.18,1.96,24.62,5.28,40.36,9.96,15.72,4.69,31.66,11.97,47.82,21.83,16.14,9.88,23.69,20.09,22.65,30.62l-.08,1.43c-.05.96,8.23-8.47,6.76-7.4-1,1.04-1.4,1.78-1.18,2.23.2.46,1.25.61,3.15.46l-.08,1.43-2.2,1.6,6.53-3.38c.89.89,1.55,1.66,1.99,2.34.43.68.75,1.13.98,1.35.22.23.57.31,1.04.27.1-1.9,2.09-3.97,5.98-6.18,2.89-1.18-4.25,8.63-3.29,8.55l2.75,1.21,10.14-4.82,1.42-.11-.08,1.43c.99-1.03,1.52-2.01,1.57-2.98s.54-1.47,1.5-1.55l-.08,1.43c1.42-.11,2.62-.68,3.62-1.72l2.83-.23c1.88-.15,2.78.74,2.68,2.64l-.08,1.43,3.42,14.7c-.39,7.16-.22,14.63.53,22.41.74,7.78,1.88,17.21,3.38,28.25,1.51,11.05,2.61,18.68,3.33,22.9l-2.83.23-.16,2.86c.94-.08,1.35,1.08,1.22,3.47l1.34,1.32c1.36,9.41,1.91,16.49,1.65,21.26-.55,10.02-1.78,23.79-3.68,41.29-1.91,17.51-5.5,37.87-10.76,61.1-5.28,23.24-11.08,36.78-17.39,40.6l5.82-3.32,9.92-.79c8.02-.64,10.62,3.43,7.79,12.21l-.16,2.86c-.05.96,1.09,1.34,3.46,1.15l1.42-.11c1.23,3.23-.53,11.7-5.27,25.37-4.75,13.69-28.31-4.03-27.97-1.69l-.08,1.43,2.99-3.09c1.23,3.23,2.78,5.02,4.64,5.33,3.17,2.13,4.53,5.23,4.07,9.3-.47,4.08,19.27-21.32,15.85-14.63-3.43,6.69,7.15-13.84,3.55-8.09-3.61,5.76-7.09,11.26-10.43,16.52-3.35,5.26-19.4,35.38-19.94,36.85-.61,2.43,12.1-20.42,9.93-15.02-2.18,5.41-3.86,10.29-5.04,14.66-1.19,4.37-1.86,8.24-2.05,11.57l.79,11.34c-3.99,29.78-2.87,35.03-9.1,54.31l-8.99,32.33,7.45,25.3ZM848,706.76c2.83-.23,4.74-.85,5.75-1.89l4.45-3.92,6.89,3.01,17.71-1.42c.47-.04.15,1.41-.94,4.35-1.11,2.94-.48,4.32,1.89,4.13.99-1.03,1.96-1.58,2.91-1.66,1.78,1.76,3.62,2.56,5.51,2.41l8.74-4.98c3.88-2.2,6.53-3.38,7.95-3.49l1.42-.11,1.5-1.55,1.42-.11c-.95.08-.94-.16.04-.72.97-.54,1.92-.87,2.87-.94l5.86-4.03,2.83-.23c.47-.04-.04.72-1.53,2.26l-.16,2.86c1.96-1.58,4.42-3.44,7.36-5.58,2.36-.19,4.03-.79,5.04-1.83l1.5-1.55,8.66-3.55,1.57-2.98,2.75,1.21c.47-.04,1.19-.33,2.16-.89.97-.54,1.69-.85,2.16-.89,1.99-2.05,3.93-3.17,5.82-3.32,4.49-4.64,10.12-8.89,16.92-12.76,6.39-5.26,11.92-11.65,16.57-19.15.03-.47,1.28-1.99,3.78-4.58.99-1.03,2.01-2.53,3.07-4.52,1.04-1.98,2.06-3.48,3.07-4.52,3.31-8.82,4.97-13.46,5-13.95.49-.51.51-.86.06-1.07-.46-.2-1.4-.24-2.81-.13l1.5-1.55.08-1.43,1.34,1.32,1.42-.11c-.9-.87-1.31-1.79-1.26-2.75l4.8-10.37c.05-.95.57-1.94,1.57-2.98,2.72-6.87,4.87-11.55,6.41-14.06l6.14-9.05c8.23-13.01,10.41-31.24,6.53-54.7l-5.51-15.24c-5.94-11.88-12.47-19.07-19.62-21.6-7.16-2.51-18.28-3.17-33.39-1.96l-13.46,1.08c-7.56.61-11.23-.99-11.02-4.82l1.42-.11,1.53-2.26-13.66,4.66c-3.44,2.66-11.69,5.21-24.75,7.69-13.07,2.47-22.77,5.64-29.08,9.46-29.97,23.32-53.13,47.03-69.5,71.16-10.32,16.51-17.85,33.76-22.59,51.71-4.76,17.97-4.31,35.53,1.34,52.65,2.57,4.55,10.1,10.72,22.61,18.51,12.5,7.8,22.29,11.4,29.38,10.84ZM1147.87,524.47c-1.03,1.51-1.56,2.74-1.61,3.69l.2-3.58,1.42-.11Z"></path>
    </g>
  </g>
</svg>